<?xml version="1.0" encoding="iso-8859-1"?>
<!-- Generator: Adobe Illustrator 16.0.0, SVG Export Plug-In . SVG Version: 6.00 Build 0)  -->
<!DOCTYPE svg PUBLIC "-//W3C//DTD SVG 1.1//EN" "http://www.w3.org/Graphics/SVG/1.1/DTD/svg11.dtd">
<svg version="1.1" id="Capa_1" xmlns="http://www.w3.org/2000/svg" xmlns:xlink="http://www.w3.org/1999/xlink" x="0px" y="0px"
	 width="192.746px" height="192.746px" viewBox="0 0 192.746 192.746" style="enable-background:new 0 0 192.746 192.746;"
	 xml:space="preserve">
<g>
	<g>
		<path d="M53.81,100.337c-1.321,1.534-2.579,3.13-3.732,4.804l20.195,11.661L53.81,100.337z"/>
		<path d="M43.48,155.456c0.673,1.918,1.452,3.787,2.326,5.608l20.146-11.637L43.48,155.456z"/>
		<path d="M40.469,141.122c0.149,2.04,0.399,4.05,0.768,6.028l22.484-6.028H40.469z"/>
		<path d="M64.679,90.542c-1.677,1.148-3.261,2.402-4.801,3.723l16.45,16.447L64.679,90.542z"/>
		<path d="M40.469,132.536H63.72l-22.478-6.022C40.874,128.48,40.624,130.502,40.469,132.536z"/>
		<path d="M77.774,83.954c-1.927,0.673-3.791,1.452-5.611,2.326l11.633,20.151L77.774,83.954z"/>
		<path d="M45.818,112.601c-0.874,1.827-1.653,3.69-2.333,5.608l22.478,6.021L45.818,112.601z"/>
		<path d="M146.913,112.588l-20.173,11.655l22.499-6.034C148.569,116.278,147.79,114.415,146.913,112.588z"/>
		<path d="M138.925,100.337l-16.478,16.478l20.204-11.667C141.506,103.467,140.246,101.871,138.925,100.337z"/>
		<path d="M108.93,106.444l11.636-20.173c-1.82-0.871-3.689-1.65-5.608-2.329L108.93,106.444z"/>
		<path d="M128.031,90.524l-11.661,20.188l16.478-16.465C131.301,92.933,129.705,91.678,128.031,90.524z"/>
		<path d="M146.926,161.058c0.877-1.82,1.656-3.689,2.326-5.614l-22.476-6.016L146.926,161.058z"/>
		<path d="M128.062,183.137c1.681-1.156,3.264-2.404,4.811-3.727L116.4,162.945L128.062,183.137z"/>
		<path d="M138.942,173.334c1.321-1.535,2.576-3.13,3.727-4.811l-20.21-11.673L138.942,173.334z"/>
		<path d="M114.981,189.738c1.919-0.683,3.782-1.462,5.603-2.339l-11.631-20.155L114.981,189.738z"/>
		<path d="M151.498,147.15c0.372-1.973,0.615-3.988,0.768-6.028h-23.254L151.498,147.15z"/>
		<path d="M128.999,132.536h23.261c-0.146-2.034-0.402-4.056-0.773-6.022L128.999,132.536z"/>
		<path d="M77.722,189.726l6.019-22.463l-11.618,20.125C73.932,188.264,75.798,189.044,77.722,189.726z"/>
		<path d="M100.663,192.746c2.04-0.158,4.053-0.402,6.028-0.779l-6.028-22.506V192.746z"/>
		<path d="M50.059,168.511c1.145,1.681,2.399,3.276,3.721,4.811l16.468-16.465L50.059,168.511z"/>
		<path d="M59.854,179.398c1.541,1.315,3.13,2.569,4.801,3.721l11.633-20.149L59.854,179.398z"/>
		<path d="M92.078,192.746v-23.432l-6.074,22.652C87.995,192.344,90.013,192.588,92.078,192.746z"/>
		<path d="M91.155,65.927c-2.643,1.714-4.403,4.677-4.403,8.056c0,2.898,1.346,5.45,3.392,7.207
			c-1.379,0.152-2.755,0.274-4.101,0.523l6.035,22.509V81.701h8.592v22.375l5.992-22.363c-1.327-0.249-2.707-0.371-4.064-0.523
			c2.046-1.757,3.392-4.308,3.392-7.207c0-3.379-1.757-6.342-4.402-8.056h14.534L69.98,0H32.656l46.135,65.927H91.155z
			 M96.367,68.938c2.773,0,5.045,2.262,5.045,5.044c0,2.78-2.271,5.039-5.045,5.039s-5.045-2.265-5.045-5.045
			C91.322,71.194,93.594,68.938,96.367,68.938z"/>
		<polygon points="160.09,0 122.752,0 99.954,32.567 118.611,59.235 		"/>
		<polygon points="108.314,143.125 120.261,131.489 103.75,129.084 96.367,114.123 88.984,129.084 72.474,131.489 84.42,143.125 
			81.607,159.572 96.367,151.803 111.127,159.572 		"/>
	</g>
</g>
<g>
</g>
<g>
</g>
<g>
</g>
<g>
</g>
<g>
</g>
<g>
</g>
<g>
</g>
<g>
</g>
<g>
</g>
<g>
</g>
<g>
</g>
<g>
</g>
<g>
</g>
<g>
</g>
<g>
</g>
</svg>
