<?xml version="1.0" encoding="iso-8859-1"?>
<!-- Generator: Adobe Illustrator 16.0.0, SVG Export Plug-In . SVG Version: 6.00 Build 0)  -->
<!DOCTYPE svg PUBLIC "-//W3C//DTD SVG 1.1//EN" "http://www.w3.org/Graphics/SVG/1.1/DTD/svg11.dtd">
<svg version="1.1" id="Capa_1" xmlns="http://www.w3.org/2000/svg" xmlns:xlink="http://www.w3.org/1999/xlink" x="0px" y="0px"
	 width="168.238px" height="168.238px" viewBox="0 0 168.238 168.238" style="enable-background:new 0 0 168.238 168.238;"
	 xml:space="preserve">
<g>
	<g>
		<polygon points="137.351,0 102.329,0 84.118,24.279 65.908,0 30.888,0 84.118,70.972 		"/>
		<path d="M128.988,111.559l-7.238-3.618l4.459-6.764c4.372-6.632,1.467-11.665-6.466-11.194l-8.078,0.481l0.486-8.072
			c0.471-7.934-4.558-10.842-11.196-6.465l-6.757,4.459l-3.623-7.245c-0.481-0.966-1.018-1.721-1.587-2.383l-1.289,0.31h-7.172
			l-1.289-0.31c-0.562,0.663-1.104,1.417-1.585,2.383l-3.619,7.25l-6.759-4.46c-6.634-4.377-11.666-1.469-11.189,6.465l0.481,8.076
			l-8.081-0.481c-7.928-0.471-10.837,4.553-6.457,11.196l4.463,6.752l-7.246,3.623c-7.11,3.562-7.11,9.367,0,12.925l7.246,3.628
			l-4.463,6.747c-4.375,6.644-1.471,11.677,6.457,11.206l8.081-0.492l-0.481,8.088c-0.476,7.929,4.555,10.846,11.189,6.457
			l6.759-4.466l3.619,7.25c3.562,7.109,9.365,7.109,12.933,0l3.617-7.25l6.76,4.466c6.631,4.377,11.665,1.472,11.193-6.457
			l-0.486-8.088l8.082,0.492c7.935,0.471,10.834-4.562,6.468-11.206l-4.465-6.747l7.239-3.628
			C136.091,120.926,136.091,115.12,128.988,111.559z M117.722,105.62l-22.173-3.228l-9.944-20.155
			C100.361,82.846,112.824,92.395,117.722,105.62z M104.747,146.54l-20.243-10.643l-0.386-0.104l-0.386,0.104L63.487,146.54
			l3.854-22.551l-0.235-0.738l-16.389-15.968l22.655-3.293l0.625-0.46l10.121-20.516l10.123,20.516l0.635,0.46l22.649,3.293
			l-16.389,15.968l-0.233,0.738L104.747,146.54z M82.635,82.237l-9.942,20.155l-22.178,3.228
			C55.412,92.395,67.876,82.846,82.635,82.237z M48.259,118.021c0-3.295,0.481-6.474,1.315-9.505l16.045,15.622l-3.757,21.945
			C53.586,139.514,48.259,129.391,48.259,118.021z M84.118,153.88c-7.277,0-14.045-2.195-19.711-5.938l19.711-10.364l19.712,10.374
			C98.167,151.685,91.396,153.88,84.118,153.88z M106.38,146.092l-3.759-21.954l16.044-15.617c0.835,3.031,1.316,6.205,1.316,9.5
			C119.981,129.391,114.654,139.514,106.38,146.092z"/>
		<path d="M92.77,106.223l-2.083-4.208c0.244,0.711,0.408,1.461,0.408,2.251c0,3.856-3.135,6.991-6.981,6.991
			c-3.855,0-6.987-3.135-6.987-6.991c0-0.757,0.144-1.457,0.374-2.147l-2.027,4.104l-19.354,2.812l14.003,13.638l-3.294,19.266
			l14.528-7.631c-3.06-8.33-8.61-20.216-16.473-24.275h9.922c5.762,2.003,7.951,14.129,8.799,23.091l0.514-0.277l0.515,0.277
			c0.843-8.957,3.033-21.077,8.794-23.08h9.92c-7.855,4.049-13.406,15.935-16.46,24.252l14.534,7.65l-3.295-19.263l14.003-13.641
			L92.77,106.223z"/>
		<path d="M84.113,97.281c2.368,0,4.459,1.187,5.72,2.998L84.118,88.7l-5.692,11.536C79.698,98.452,81.766,97.281,84.113,97.281z"/>
	</g>
</g>
<g>
</g>
<g>
</g>
<g>
</g>
<g>
</g>
<g>
</g>
<g>
</g>
<g>
</g>
<g>
</g>
<g>
</g>
<g>
</g>
<g>
</g>
<g>
</g>
<g>
</g>
<g>
</g>
<g>
</g>
</svg>
