<?xml version="1.0" encoding="iso-8859-1"?>
<!-- Generator: Adobe Illustrator 18.1.1, SVG Export Plug-In . SVG Version: 6.00 Build 0)  -->
<svg version="1.1" id="Capa_1" xmlns="http://www.w3.org/2000/svg" xmlns:xlink="http://www.w3.org/1999/xlink" x="0px" y="0px"
	 viewBox="0 0 612 612" style="enable-background:new 0 0 612 612;" xml:space="preserve">
<g>
	<g>
		<path d="M286.007,388.088l18.471,52.218l18.471-52.218c-5.693-2.352-11.929-3.656-18.471-3.656
			C297.937,384.432,291.701,385.736,286.007,388.088z"/>
		<path d="M538.708,71.934c-15.626-3.38-31.177-2.189-45.259,2.675c9.26,21.816,13.961,46.788,13.961,74.346
			c0,0.668-0.003,1.336-0.008,2.005c17.051,12.521,27.631,32.626,27.631,54.563c0,35.583-27.599,64.84-62.515,67.488
			c-16.63,26.707-38.52,49.284-64.015,65.889c-0.638,0.415-1.281,0.821-1.923,1.228c14.996,5.999,32.641,7.446,50.379,3.022
			c23.149-5.774,41.459-20.304,51.296-38.329c31.606,1.137,60.455-20.467,67.377-52.462c2.449-11.323,1.858-22.595-1.223-32.968
			c14.173-11.637,24.668-27.959,28.846-47.275C613.096,126.628,584.197,81.774,538.708,71.934z"/>
		<path d="M103.745,304.822c9.837,18.026,28.147,32.555,51.296,38.329c16.995,4.239,33.904,3.086,48.48-2.294
			c-1.027-0.642-2.05-1.294-3.067-1.956c-25.496-16.605-47.385-39.182-64.015-65.889c-34.916-2.648-62.515-31.905-62.515-67.488
			c0-21.937,10.58-42.042,27.631-54.563c-0.006-0.669-0.008-1.337-0.008-2.005c0-27.924,4.817-53.197,14.321-75.217
			c-13.363-4.121-27.936-4.972-42.577-1.805C27.803,81.774-1.096,126.628,8.745,172.118c4.178,19.317,14.673,35.638,28.846,47.275
			c-3.08,10.373-3.672,21.646-1.223,32.968C43.29,284.356,72.139,305.959,103.745,304.822z"/>
		<path d="M402.78,385.872l21.423,21.487l30.381,30.413l-42.806,3.707l-10.479,0.911l16.989,42.157l9.008,22.352l-23.777,4.738
			l-89.664,17.951v82.412h237.321C551.175,510.704,490.104,423.827,402.78,385.872z"/>
		<path d="M181.662,506.9l9.008-22.35l16.989-42.153l-10.479-0.903l-42.806-3.691l30.381-30.38l21.283-21.412
			C118.888,424.042,57.969,511.349,57.969,612h236.53v-82.412l-89.362-17.95L181.662,506.9z"/>
		<path d="M372.639,424.793l37.421-3.226l-49.522-49.52l-7.179-7.179c-0.129-0.129-0.292-0.189-0.454-0.189
			c-0.259,0-0.513,0.155-0.61,0.43l-12.317,34.82l-28.609,80.877l-6.889,19.475l-6.889-19.475l-28.609-80.877l-12.317-34.82
			c-0.097-0.276-0.351-0.43-0.61-0.43c-0.161,0-0.325,0.06-0.454,0.189l-7.236,7.235l-49.465,49.464l37.421,3.226l-27.098,67.234
			l95.203,19.091l0.055,0.012l0.056-0.012l95.203-19.091L372.639,424.793z"/>
		<path d="M99.733,205.524c0,23.127,18.748,41.875,41.875,41.875c3.198,0,6.307-0.37,9.3-1.05
			c17.89,34.236,44.924,61.924,77.421,79.016c23.068,12.134,48.889,18.931,76.149,18.931c28.045,0,54.565-7.193,78.133-19.991
			c31.613-17.165,57.914-44.419,75.438-77.956c2.992,0.679,6.102,1.05,9.3,1.05c23.127,0,41.875-18.749,41.875-41.875
			c0-18.367-11.83-33.961-28.283-39.607c0.436-5.591,0.661-11.248,0.661-16.962c0-23.942-3.913-44.588-11.061-62.229
			C445.484,24.871,380.592,0,304.479,0C229.06,0,164.661,24.423,139.115,85.044c-7.589,18.009-11.759,39.202-11.759,63.911
			c0,5.715,0.225,11.372,0.661,16.962C111.564,171.563,99.733,187.156,99.733,205.524z M215.785,161.18
			c0-13.801,8.666-24.989,19.356-24.989c10.69,0,19.356,11.188,19.356,24.989c0,13.801-8.666,24.989-19.356,24.989
			C224.45,186.169,215.785,174.982,215.785,161.18z M373.213,186.169c-10.69,0-19.356-11.188-19.356-24.989
			s8.666-24.989,19.356-24.989s19.356,11.188,19.356,24.989S383.903,186.169,373.213,186.169z M353.41,102.734
			c9.909-1.721,20.018-2.082,30.049-1.534c9.337,0.511,19.559,1.154,28.574,3.817c9.138,2.699,15.467,7.966,19.806,16.318
			c1.783,3.432,4.001,8.22,2.681,12.123c-1.699,5.025-9.586,6.228-14.089,6.404c-6.042,0.237-12.112-1.327-17.686-3.557
			c-8.873-3.549-16.892-8.867-25.286-13.387c-8.326-4.483-16.958-8.826-25.314-12.968
			C347.25,107.524,348.028,103.669,353.41,102.734z M304.822,202.286c38.067,0,69.036,16.471,69.036,36.789v28.389
			c0,2.53-2.781,4.076-4.931,2.739l-29.562-18.397c-1.09-0.678-2.479-0.646-3.536,0.083l-29.177,20.119
			c-1.103,0.76-2.56,0.76-3.663,0l-29.177-20.119c-1.057-0.729-2.446-0.761-3.536-0.083l-29.562,18.397
			c-2.149,1.337-4.931-0.208-4.931-2.739v-28.389C235.786,218.758,266.861,202.286,304.822,202.286z M177.119,121.335
			c4.338-8.353,10.668-13.619,19.806-16.318c9.015-2.663,19.237-3.306,28.574-3.817c10.031-0.548,20.14-0.188,30.049,1.534
			c5.382,0.936,6.16,4.79,1.265,7.217c-8.355,4.142-16.988,8.485-25.314,12.968c-8.394,4.52-16.413,9.837-25.286,13.387
			c-5.574,2.23-11.644,3.793-17.686,3.557c-4.503-0.176-12.39-1.379-14.089-6.404C173.118,129.555,175.337,124.767,177.119,121.335z
			"/>
	</g>
</g>
<g>
</g>
<g>
</g>
<g>
</g>
<g>
</g>
<g>
</g>
<g>
</g>
<g>
</g>
<g>
</g>
<g>
</g>
<g>
</g>
<g>
</g>
<g>
</g>
<g>
</g>
<g>
</g>
<g>
</g>
</svg>
